<?xml version="1.0"?>
<svg xmlns:rdf="http://www.w3.org/1999/02/22-rdf-syntax-ns#" xmlns="http://www.w3.org/2000/svg" xmlns:cc="http://web.resource.org/cc/" xmlns:xlink="http://www.w3.org/1999/xlink" xmlns:dc="http://purl.org/dc/elements/1.1/" xmlns:svg="http://www.w3.org/2000/svg" id="Layer_1" xml:space="preserve" overflow="visible" viewBox="0 0 263.572 309.094" version="1.1" enable-background="new 0 0 263.572 309.094">
<g clip-rule="evenodd" fill-rule="evenodd">
	<path d="m253.2 7.337c-75.05 1.261-163.76 2.113-246.14 1.71 6.925-3.49 14.748-0.849 22.22-0.854 24.599-0.018 48.722-1.559 72.645-1.709 32.331-0.204 65.946-0.071 99.138-0.854 16.64-0.394 35.28-0.553 52.14 1.707z" fill="#fff"/>
	<path d="m7.917 13.32c-0.529-3.253 14.09-1.575 9.401-0.854-4.05-0.632-5.876 0.961-9.401 0.854z" fill="#fff"/>
	<path d="m132.69 16.738c0.126-0.234 1.838-1.58 2.563-0.854 0.6 0.59-3.36 2.355-2.56 0.854z" fill="#fff"/>
	<path d="m160.04 38.959c-2.01 2.749-3.45-3.006 0 0z" fill="#fff"/>
	<path d="m40.393 61.18c2.621 0.84-0.982 2.28-0.854 3.419-2.621-0.839 0.981-2.281 0.854-3.419z" fill="#fff"/>
	<path d="m161.75 62.889c-1.88 2.611-5.47-0.987 0 0z" fill="#fff"/>
	<path d="m39.538 69.727c2.641 2.975-2.078 5.862-0.855 10.255-2.212-2.547-0.255-8.195 0.855-10.255z" fill="#fff"/>
	<path d="m83.979 84.255c0.748-3.833 1.543-12.103 5.128-10.256-0.396 2.453-0.989 4.709-3.419 5.128-0.517 1.762 1.38 5.938-1.709 5.128z"/>
	<path d="m95.089 91.947c2.302 1.011-0.002 4.456 0 5.983-2.584-1.294 0.709-3.751 0-5.983z"/>
	<path d="m111.33 96.22c2.44 3.467-2.79 5.56 0 0z" fill="#fff"/>
	<path d="m103.64 102.2c0.326-1.627 1.087 0.546 0.854 1.709-0.32 1.63-1.09-0.54-0.85-1.71z" fill="#fff"/>
	<path d="m115.6 106.48c2.44 3.46-2.79 5.56 0 0z" fill="#fff"/>
	<path d="m57.486 134.68c1.739-2.478-2.388-8.553 0-11.965 6.59 4.518 5.501 16.719 13.673 19.656-0.047-2.801-2.431-3.267-1.709-6.837 2.583 4.43 2.423-2.168 4.273-3.419-0.518 6.826 5.016 13.938 4.274 21.367-1.974 0.02-3.111 3.837-5.128 4.272-1.438 0.31-6.753-1.841-8.547-3.418-3.857-3.394-14.325-19.904-15.383-26.495-0.717-4.467 0.575-8.321 0-11.11 1.562-1.287 2.01-3.687 3.418-5.127 4.269 2.646-0.693 8.326-0.855 11.965 4.499 1.21 3.535 7.87 5.984 11.12z" fill="#fff"/>
	<path d="m108.76 113.31c0.983-2.765 0.967 2.295 0.854 3.419-0.98 2.77-0.96-2.29-0.85-3.42z" fill="#fff"/>
	<path d="m105.35 115.02h2.563v5.128c-2.26-0.31-3.07-2.05-2.56-5.13z" fill="#fff"/>
	<path d="m183.97 122.71c2.619 0.839-0.981 2.28-0.855 3.418-0.631-1.363-4.183 0.195-3.418-2.563 1.24-0.47 4.42 1 4.27-0.86z" fill="#fff"/>
	<path d="m154.06 124.42c-0.373 1.051-1.095 1.755-2.564 1.709-0.4-1.82 1.22-1.63 2.56-1.71z" fill="#fff"/>
	<path d="m66.032 127.84c1.693 0.663 0.461 5.509-1.709 5.128-0.409-2.69 1.217-3.34 1.709-5.13z" fill="#fff"/>
	<path d="m104.49 149.21c0.558-2.41 0.992 1.968 0.855 2.564-0.39 1.72-1.6 0.69-0.85-2.56z" fill="#fff"/>
	<path d="m172.86 148.35c-0.14 0.994 0.188 1.521 0.854 1.709-0.633 3.127-5.485 0.436-7.691 0 0.2-2.66 4.26-1.44 6.84-1.71z"/>
	<path d="m94.235 150.92c0.556-2.411 0.992 1.968 0.854 2.564-0.395 1.72-1.605 0.69-0.854-2.56z" fill="#fff"/>
	<path d="m96.799 150.92c2.997 2.851 0.695 5.689 1.709 10.255-2.685-1.31-1.423-6.56-1.709-10.26z" fill="#fff"/>
	<path d="m99.363 154.34c1.431-2.461 0.68 4.367 0.854 5.982-1.433 2.46-0.683-4.37-0.857-5.98z" fill="#fff"/>
	<path d="m153.2 154.34c-5.349 9.179-12.758 16.3-23.076 20.511 0.288-3.416 3.365-4.043 3.419-7.692 10.36 1.63 11.25-10.08 19.66-12.82z"/>
	<path d="m119.87 156.9c0.325-1.626 1.087 0.546 0.854 1.709-0.32 1.63-1.08-0.55-0.85-1.71z" fill="#fff"/>
	<path d="m117.31 158.61c1.179-2.721 0.847 3.02 0.855 4.273-1.17 2.72-0.84-3.02-0.85-4.27z" fill="#fff"/>
	<path d="m110.47 159.46c0.324-1.626 1.087 0.546 0.854 1.709-0.32 1.63-1.08-0.54-0.85-1.71z" fill="#fff"/>
	<path d="m103.64 160.32c2.726 3.152 3.069 11.664 1.71 16.238-2.08-3.91 0.16-12.13-1.71-16.24z" fill="#fff"/>
	<path d="m124.15 163.74c0.325-1.627 1.088 0.545 0.855 1.709-0.32 1.62-1.08-0.55-0.85-1.71z" fill="#fff"/>
	<path d="m179.7 163.74c3.088-0.81 1.192 3.366 1.71 5.127-1.49-0.79-1.89-2.68-1.71-5.13z" fill="#fff"/>
	<path d="m115.6 166.3c0.557-2.41 0.992 1.968 0.855 2.563-0.4 1.72-1.61 0.69-0.86-2.56z" fill="#fff"/>
	<path d="m119.87 166.3c3.336 1.183 2.9 14.3 1.71 20.511-0.868 2.16-1.37-7.635-2.564-0.855 1.134-6.453-2.654-13.224-0.854-18.802-0.31 0.92 2.72 4.49 1.7-0.86z" fill="#fff"/>
	<path d="m124.15 168.86c0.325-1.626 1.088 0.546 0.855 1.709-0.32 1.63-1.08-0.54-0.85-1.71z" fill="#fff"/>
	<path d="m112.18 173.14c3.168 2.172 1.67 9.096 0.854 2.564-0.09-0.73-1.16-1.35-0.85-2.56z"/>
	<path d="m124.15 185.96c1.431-2.461 0.681 4.368 0.855 5.983-1.43 2.46-0.68-4.37-0.85-5.98z" fill="#fff"/>
	<path d="m124.15 197.07c0.325-1.626 1.088 0.546 0.855 1.71-0.32 1.62-1.08-0.55-0.85-1.71z" fill="#fff"/>
	<path d="m120.73 197.07c0.929 0.212 0.579 1.7 1.709 1.71-0.37 2.36-2.69 0.04-1.71-1.71z" fill="#fff"/>
	<path d="m173.72 245.78c-3.497 2.14-5.995-2.45-10.255-3.418-6.604-1.5-16.299 2.276-17.947-3.419 7.6-0.662 12.219-4.305 17.092-7.691 5.25 3.3 7.03 10.07 11.12 14.53z" fill="#fff"/>
	<path d="m144.66 253.47c1.321-2.611 0.753 3.708 0.855 5.129-1.33 2.61-0.76-3.71-0.86-5.13z" fill="#fff"/>
	<path d="m157.48 269.71c3.855 3.083 11.764 4.381 17.948 2.563 1.919 8.052 4.47 15.474 5.983 23.932-6.769-1.826-16.67 1.203-21.367-1.71-9.143-5.669-20.459-14.761-29.058-20.512 8.591-2.067 17.146-5.416 23.076-1.71 2.24 0.25 3.68-0.31 3.42-2.56z" fill="#fff"/>
	<path d="m94.235 138.1c-0.87 0.555-0.884 1.965-2.564 1.709 2.742-2.449-2.364-7.085-2.563-3.419-1.553 0.235-0.671-7.536-1.709-2.564-2.151-4.596 1.052-8.756 0.854-13.674-0.281-6.999-5.474-12.542-5.127-20.512-2.462-3.385-4.514-9.757-1.709-13.674-0.212-0.928-1.7-0.58-1.709-1.709-0.527-3.945 1.918-4.918 1.709-8.547-3.271 4.138-5.618 9.197-9.401 12.82 1.064-6.07 12.043-13.011 9.401-23.075-0.688 0.452-1.388 0.892-2.565 0.855 0.562-1.147 1.828-1.592 3.419-1.709 1.189-3.107 4.415-8.659 4.274-10.255 7.235-5.014 13.933-10.567 22.221-14.529 7.669 3.155 15.696 5.953 25.639 6.837 0.845 2.859 2.713 4.693 3.419 7.692 1.898 0.664 3.332 1.794 5.981 1.709-1.76 6.782 4.183 5.491 8.547 8.546 3.149 2.205 2.615 5.314 6.837 5.982 7.68 1.215 10.149-8.022 11.111-17.947 15.705 10.219 16.954 34.893 24.783 52.987 3.996-2.739 0.067-7.089 0-10.255-0.1-4.718 1.373-8.766 0.855-12.82-0.361-2.824-2.174-4.778-2.564-7.692-0.461-3.454 0.796-7.041 0-10.255-2.871-11.592-15.568-13.812-23.074-21.366-4.914-6.845-6.777-16.404-12.821-21.366-4.751-3.901-16.75-9.71-23.93-9.401-5.239 0.225-9.936 3.152-15.383 4.272-3.28 0.675-6.246-0.163-9.4 0.855-4.994 1.61-7.945 5.223-12.82 7.692-10.18-2.45-23.992-0.011-31.623 5.127-5.102 3.436-23.813 20.372-27.348 29.058-7.459 18.332 6.389 40.29-2.564 59.825v7.692c-0.437 2.413-2.068 3.63-2.564 5.982 2.384 5.877 4.048 12.475 9.4 15.383-3.242 3.706 4.219 8.868-1.709 9.401 0.113 2.736 1.938 3.76 5.128 3.419 0.409 4.719 4.342 5.915 6.837 8.546 1.503-0.491 5.021 1.034 5.128-0.854 0.89 5.34 4.624 9.59 9.401 8.547 1.993 2.565 2.678 6.438 4.274 9.401-0.116 3.304-3.467 3.371-4.274 5.982 0.5 13.32-5.755 19.884-8.545 29.912-16.193 7.738-32.34 15.521-47.006 24.785-2.074-6.193 0.009-17.13-0.854-22.222 2.081-0.858-1.674-3.778 2.564-3.418-0.128-1.58-2.894-0.524-3.418-1.709 0.106-1.888 3.625-0.363 5.127-0.854 0.147-4.618-4.42 0.429-4.273-3.419 2.418-0.146 5.863 0.735 5.983-1.709-0.083-1.347-7.845 2.175-6.837-2.564h8.546c0.756-4.459-8.448 1.041-7.692-3.418 2.877-0.541 7.938 1.101 9.401-0.854-3.319-1.846-6.974-0.594-9.401-1.71 3.458-2.875 10.067 1.567 11.965-1.709-0.953-2.181-6.611 0.343-7.692-1.709 1.742-1.962 7.098-0.31 10.255-0.855-1.693-4.289-12.269 0.305-15.383-2.563 4.367-2.47 14.406 0.732 18.802-1.71-4.437-4.859-15.157 1.778-18.802-3.418 7.869 0.203 16.343 2.615 23.075-0.854-4.843-3.122-17.583 0.762-23.075-1.709 4.852-1.985 13.382-0.292 19.656-0.855-3.249-3.873-13.589-0.655-19.656-1.709 2.155-3.827 11.277-0.687 16.237-1.709-1.885-6.728-13.097 2.335-16.237-4.273 3.201 0.454 8.411 1.809 12.819 0-2.457-2.386-10.307 0.621-12.819-1.709 1.492-3.861 8.2 0.733 10.255-2.564-1.463-1.956-6.524-0.313-9.401-0.854-2.172-1.953 7.032 0.244 7.692-1.709-1.902-3.819-4.958 0.925-8.546-1.709 0.534-2.029 5.26 0.133 5.982-1.709-1.063-2.355-7.921 1.083-6.837-3.418 1.502-0.492 5.021 1.033 5.127-0.855-1.481-1.458-2.239 0.136-5.127-0.854-0.258-2.252 1.183-2.805 3.418-2.564-0.138-1.002-1.558-0.721-2.563-0.854-0.155-1.864 0.699-2.719 2.563-2.564-0.128-1.581-2.894-0.525-3.418-1.709-0.366-2.36 3.187-0.802 3.418-2.564-0.264-1.16-2.14-0.709-3.418-0.855-0.26-2.254 1.785-2.204 3.418-2.563 0.421-2.701-4.241-0.317-3.418-3.419h2.563c-3.734-2.31 2.354-5.276-2.563-5.128 0.894-1.723 4.491-2.892 0-3.419 0.373-1.051 1.093-1.754 2.563-1.708-4.62-1.669 1.533-3.79-3.418-5.128-0.261-1.971 2.469-0.95 2.563-2.564-2.719-3.81 0.965-8.706-1.709-13.674 2.375 1.056 2.375-2.766 0-1.709-0.155-1.865 0.7-2.719 2.563-2.564 0.253-2.248-3.315-0.672-2.563-3.418 2.774-0.429 0.074-4.201-0.854-5.128 0.238-1.755 2.282-1.706 3.418-2.564-0.562-1.147-1.826-1.592-3.418-1.709 0.373-1.051 1.093-1.754 2.563-1.709 0.589-2.298-1.767-1.651-2.563-2.563-0.546-1.492 2.307-1.174 2.563-1.709 0.371-0.772-1.698-1.499-1.709-1.709-0.044-0.788 5.188-3.081 0-3.418-0.366-2.36 3.187-0.802 3.418-2.564 0.145-1.853-3.031-0.387-4.273-0.854 0.125-1.868 2.153-1.835 4.273-1.708 1.327-3.606-4.745 0.187-3.418-3.419 2.107 0.112 4.118 0.129 5.127-0.854-1.053-1.226-2.938-1.62-5.127-1.709 0.095-2.184 2.862-1.696 5.127-1.709-0.095-2.184-2.861-1.696-5.127-1.709-0.765-2.758 2.788-1.201 3.418-2.564-0.264-1.16-2.14-0.708-3.418-0.854-0.399-1.824 1.221-1.627 2.563-1.709 0.766-2.759-2.787-1.201-3.418-2.564 0.234-1.759 3.184-0.805 3.418-2.564-0.264-1.16-2.14-0.709-3.418-0.854-0.765-2.759 2.788-1.201 3.418-2.564-0.724-1.27-2.751-1.236-4.272-1.709 0.017-2.546 4.031-1.096 5.127-2.564-0.202-2.362-4.821-0.306-4.273-3.418 2.107 0.112 4.118 0.129 5.127-0.855-1.053-1.226-2.938-1.619-5.127-1.709 0.017-2.547 4.032-1.096 5.127-2.564-1.01-1.553-4.456-0.672-5.982-1.709 0.957-3.031 7.381-0.594 9.401-2.564-1.186-1.948-5.949-0.318-8.546-0.854 0.789-3.199 6.862-1.114 10.255-1.709-0.34-3.648-7.162-0.815-10.255-1.709 1.1-4.029 10.443 0.188 12.819-2.564-2.304-1.97-8.243-0.304-11.965-0.855 2.996-2.417 9.266-1.56 14.529-1.709-1.619-3.794-10.114-0.71-14.529-1.709 3.16-3.393 12.118-0.986 17.947-1.709-2.7-3.853-12.436-0.669-17.947-1.709 4.872-3.959 17.778 0.116 23.93-2.563-6.559-1.988-16.804-0.29-24.785-0.854 4.58-2.997 11.554-1.491 17.947-1.709 4.279-0.147 10.026-0.849 15.384-0.854-8.265-4.331-22.185-0.133-32.476-0.855 12.763-3.666 29.943-0.67 42.732-2.564-1.198-3.203-5.762-1.632-8.546-1.709-10.364-0.286-21.225 1.61-33.331 0.855 4.767-2.648 12.101-2.34 18.802-2.564 12.991-0.435 26.829 0.326 40.168 0-2.417-3.208-7.987-1.646-11.964-1.709-15.787-0.251-34.359 0.494-47.005 0 23.387-3.514 59.438-0.513 83.754-2.563-14.087-2.732-44.179 0.375-65.808-0.854-1.63-0.093-9.057-0.198-2.564-0.855 5.577-0.564 5.124 0.356 10.256 0 71.411-1.522 130.9-1.709 197.42-1.709 3.877 0 7.741-0.088 11.965 0 2.811 0.058 7.752-1.57 10.257 1.709-27.462-0.108-56.896-0.27-82.901 0.855 21.57 4.213 53.424-2.604 76.918 0.854 1.784 0.262 4.144-0.09 5.128 2.563-19.584-2.017-49.098-0.44-71.789 0 1.5 3.518 3.664 0.869 5.981 0.854 20.137-0.116 47.68-0.465 66.663 1.709-20.802 1.077-40.63-0.435-62.39 1.709 21.276 1.632 39.911-0.941 62.39 2.564-14.122 0.072-37.509 0.478-53.844 0 1.927 3.118 8.618 1.709 13.674 1.709 13.081 0 28.067 0.611 40.17 1.709-9.982 3.576-30.881-1.446-45.297 1.709 15.99 1.884 31.356 0.882 45.297 2.563-3.012 2.661-25.872-0.116-40.17 0.854 5.982 3.657 15.738 0.975 23.932 1.709 3.488 0.313 12.212 0.951 17.092 1.709-7.528 3.729-24.341-1.589-34.186 1.709 10.129 1.836 23.625 0.305 33.332 2.564-8.4 2.763-24.917-1.156-30.768 1.709 7.562 0.989 22.629 0.368 31.621 1.709-5.745 3.708-17.277-0.716-26.494 0.855 3.914 4.041 23.626-0.689 26.494 5.127-8.011-0.536-15.099-1.994-23.93-1.709 5.495 4.191 19.254 0.118 23.93 5.128-7.657 0.25-13.303-1.511-21.366-0.854 5.308 2.954 15.42 1.104 21.366 3.419-6.462 2.451-13.618-1.403-19.657 0 4.268 3.709 16.45-0.497 19.657 4.272-7.734 0.002-9.527-0.688-17.092-0.854 4.341 4.516 14.576-0.838 17.092 4.273-4.166-1.532-11.325-0.069-15.383-1.709 2.112 4.154 10.93 1.604 15.383 3.418-1.457 3.079-8.66-0.36-13.675 0.855 3.624 1.789 9.698 1.128 13.675 2.564-2.305 1.969-8.243 0.304-11.966 0.854 2.148 2.695 8.218 1.469 11.966 2.564-3.271 2.421-7.436 0.131-10.256 1.709 3.14 2.362 6.748-0.024 9.402 1.709-1.186 1.949-5.949 0.318-8.547 0.854 0.742 3.246 7.24 0.735 9.4 2.564-0.636 1.928-4.793 0.334-6.837 0.855-0.564 3.697 5.988 0.28 6.837 2.564-0.636 1.927-4.793 0.334-6.837 0.854 2.12 2.617 3.48 0.685 6.837 1.709 2.612 1.321-3.706 0.752-5.128 0.854-0.81 3.088 3.366 1.192 5.128 1.709-0.787 1.493-2.672 1.887-5.128 1.709 0.604 3.421 4.011 0.049 5.128 1.709 0.385 2.379-4.659-0.67-4.272 1.709 0.106 1.887 3.625 0.363 5.127 0.854-0.095 2.184-2.862 1.696-5.127 1.709 0.095 2.184 2.861 1.696 5.127 1.709 0.145 1.853-3.031 0.387-4.273 0.854-0.818 3.097 3.689 0.869 4.273 2.563-0.106 1.888-3.625 0.363-5.127 0.854 0.095 2.184 2.861 1.697 5.127 1.709-0.725 1.271-2.752 1.237-4.273 1.709 0.126 1.868 2.153 1.835 4.273 1.709-0.128 1.581-2.894 0.525-3.419 1.709 0.266 1.16 2.141 0.708 3.419 0.854-0.205 1.503-1.471 1.948-3.419 1.709-0.398 1.824 1.222 1.628 2.564 1.709-6.496 2.968 5.262 4.478-3.419 4.273-0.877 2.872 2.658 1.33 4.273 1.709-0.726 1.268-2.151 1.837-4.273 1.709-0.149 2.428 5.591-1.033 4.273 2.564-1.502 0.491-5.021-1.034-5.127 0.854 0.368 1.911 4.211 0.346 5.981 0.855-0.873 1.975-3.93 1.768-6.837 1.709-0.81 3.088 3.366 1.192 5.128 1.709-0.571 2.212-5.631-0.393-6.837 1.709-1.288 2.247 5.285 1.177 7.691 1.709-1.677 2.312-8.499-0.521-10.255 1.709 2.08 1.624 6.822 0.583 9.4 1.709-1.462 1.956-6.523 0.313-9.4 0.854 0.788 3.199 6.862 1.114 10.255 1.709 0.12 3.54-5.947 0.89-8.546 1.709-0.121 3.54 5.946 0.89 8.546 1.709-1.58 1.269-4.061 1.637-6.837 1.709 1.58 1.269 4.061 1.637 6.837 1.709 2.613 1.322-3.707 0.753-5.127 0.854-0.696 3.545 5.269 0.429 5.981 2.564 0.141 2.419-5.269-0.71-5.128 1.709 0.106 1.887 3.625 0.363 5.128 0.854 1.318 3.597-4.422 0.136-4.273 2.564-0.144 1.853 3.032 0.387 4.273 0.854 1.369 3.363-3.69 0.297-3.418 2.564 0.264 1.16 2.14 0.709 3.418 0.854-4.516 3.522 2.132 4.459-2.562 5.983 0.137 1.001 1.557 0.721 2.562 0.854 0.4 1.824-1.22 1.628-2.562 1.709-0.399 1.824 1.221 1.628 2.562 1.709 0.861 2.57-1.903 1.514-3.418 1.709-0.862 2.571 1.903 1.515 3.418 1.709-0.687 3.504-3.518-0.444-5.128 1.709 0.097 2.184 2.862 1.696 5.128 1.709-1.01 1.554-4.456 0.672-5.981 1.709 0.368 1.911 4.211 0.346 5.981 0.855-0.268 2.866-3.871 2.395-6.837 2.564-0.378 3.798 7.414-0.577 6.837 3.418h-7.691c-0.332 3.465 5.325 0.941 7.691 1.709-0.24 3.748-7.974 0.003-9.4 2.564 1.574 2.699 10.208-1.662 9.4 3.418h-11.109c0.808 3.749 8.998 0.117 11.109 2.564-4.098 2.02-6.942 0.748-11.965 0.854 1.176 2.558 9.065 2.86 11.11 1.709 1.02 4.018-12.634 0.274-14.529 2.564 2.462 3.236 10.308 1.088 15.384 1.709-2.597 4.239-14.011-0.337-17.947 2.563 2.739 1.406 7.014 0.451 11.966 0.854 1.652 0.135 6.22-1.308 5.981 1.71h-20.511c2.306 3.471 9.132 1.236 14.529 1.709 2.081 0.182 4.189 1.497 5.981 0.854-4.941 3.398-16.95-1.291-23.93 1.71 5.598 2.949 15.827 1.265 23.93 1.709-0.923 3.148-6.068 1.639-9.4 1.709-6.019 0.128-13.344-1.21-17.947 0 1.978 3.096 8.632 1.709 13.673 1.709 5.043 0 11.696-1.386 13.675 1.71-9.973 0.566-22.216-1.136-30.767 0.854 10.834 1.899 19.726 0.663 31.621 1.709-7.839 3.938-24.914-1.717-35.04 1.71 9.664 2.585 23.03 1.469 35.04 1.709-3.136 5.332-11.156 1.99-17.092 1.709-7.09-0.335-14.761 0.256-21.367 0 2.612 3.449 9.151 1.304 13.675 1.71 5.243 0.47 16.195 1.777 22.221 0.854 0.138 1.002 1.559 0.722 2.563 0.854-9.657 3.056-30.382-1.138-44.44 1.71 9.059 2.839 30.146 0.241 44.44 2.563-6.735 1.542-15.894 0.855-24.784 0.855-8.742 0-17.92-0.952-23.075 0.854 9.655 1.702 20.771 1.563 34.186 1.709 4.323 0.047 11.252-2.089 13.674 2.564-14.903 1.096-26.969-2.029-38.459 0 10.7 3.258 27.228 0.69 38.459 3.418-7.606 3.988-19.289-0.676-29.912 0.854 6.014 5.098 21.236 0.984 29.912 3.419-4.07 3.221-13.773-0.438-21.365 0.854 3.499 4.354 17.698-0.049 21.365 4.273h-13.674c2.293 4.11 11.273 1.648 14.529 2.563-1.57 1.85-5.039 1.799-8.547 1.709-0.331 3.466 5.326 0.941 7.691 1.71 1.317 3.597-4.421 0.136-4.272 2.563-0.145 1.854 3.031 0.388 4.272 0.855-3.076 4.812 1.947 7.646 0.855 16.237-13.366 0.153-25.557-4.134-36.749-5.982-2.786-0.46-5.107 0.507-7.693-0.854-17.624-9.285-36.33-20.412-47.004-35.04 6.806-1.884 8.243-5.27 17.093-5.982 1.036 0.261 2.946-2.469 0.854-2.563 2.662-1.722 4.216 0.407 6.838-1.71-1.654-8.374 7.97-17.654-3.419-23.075 0.729-4.433-1.625-5.781-4.272-6.837-1.219-10.499-0.108-19.379 0-27.349 2.01-1.408 3.013-3.825 5.981-4.273-0.114-5.013-0.578-9.678-1.709-13.674 3.085-4.428 5.627-15.731 0.855-20.512 1.104-2.598 3.418-3.988 2.563-8.546 4.284-2.837 8.449-5.794 10.256-11.11-3.348-3.898-5.81 1.754-9.401 2.564-3.283 0.74-6.661-0.733-9.401 0-5.23 1.4-8.242 4.894-10.255 9.401 6.717 10.87 15.174 23.852 14.528 39.313-9.03 0.169-16.598 2.201-28.203 1.709-1.653-3.026 0.022-4.936 0-8.546-7.81 3.211-1.643 16.03 5.128 15.383 1.236 1.328 1.797 3.33 2.564 5.127 4.274 0.568 8.877 0.808 8.546 5.983-1.592 0.118-2.856 0.562-3.419 1.709-7.872-2.475-19.732 0.959-27.349 0 0.109 0.014-3.181-1.747-3.417-1.709-3.92 0.628-6.614 5.243-8.547 6.836 2.092 1.468 4.618-2.34 7.691-2.563 14.939-0.229 24.201 0.265 37.604 0.854-2.913 1.113-0.403 3.656-1.71 5.128-13.318 1.022-26.829-2.165-35.039-3.419 1.269 6.138 10.104 4.708 11.964 10.257 9.574 0.212 15.446-1.161 23.075 0.854 1.903-1.8 0.736-6.67 4.273-6.837 2.592 3.02-2.153 4.175-1.71 7.692-0.29 4.278 3.258 4.72 2.565 9.4-2.029-2.229-1.727 0.365-2.565 0.855-0.476 0.276-2.214-0.399-2.563 0-1.883 2.141 0.775 0.705-0.854 0-1.775-0.77-3.969 1.866-5.127 2.563-0.946-3.618-7.184-1.703-9.402-1.709-0.395-4.286-3.598-1.317-3.419-5.128-2.283-0.494-5.34 2.527-6.836 0-1.352 1.781-2.787 3.481-3.419 5.982-0.626-4.216-5.878-3.808-5.128-9.401-5.802-0.923-5.71-4.42-11.11-3.419-0.091-2.188-0.483-4.073-1.709-5.127-2.203 0.206 1.173 1.47 0 3.418-2.248 0.253-0.673-3.315-3.419-2.563 2.106-15.355-0.244-25.757 12.819-30.768-2.512-6.093-9.34-0.145-10.256 5.128-2.399-1.637 1.175-4.456 0.855-6.837-0.76-0.975-2.386 0.528-1.709-3.419-1.415 0.864-0.928 3.63-1.71 5.128-2.02 1.874 0.14-3.548 0-5.128-0.575-1.988-4.484-0.644-3.419-4.272-1.295 2.755-1.649 6.395-1.709 0-1.268 0.727-1.837 2.15-1.709 4.272-3.431-4.812-5.77-7.663-11.11-6.837-0.807-1.472-3.159-1.398-2.563-4.273-1.764 2.127-5.327 0.475-4.274-1.709-1.453-0.314-1.612 0.667-1.708 1.709-1.16-0.264-0.709-2.14-0.855-3.418-1.147 0.173-1.591 3.55-1.709 0-2.645 0.14-3.541 6.64-2.493-2.5zm-4.274-64.1c-0.423 2.468-2.054 8.145-0.854 9.401 1.476-0.519-0.066-4.054 1.709-4.273 1.199 2.99-2.397 5.471 0 6.837 1.185-0.524 0.128-3.29 1.709-3.418 1.277 1.388 3.693 3.454 4.273 7.692 2.525 1.237 0.291 15.583-1.709 22.221 3.038-0.667 3.414-3.994 5.128-5.982 0.516 5.764-4.075 13.7 1.709 18.802-0.129-2.123 0.441-3.547 1.709-4.273 1.186 0.524 0.129 3.29 1.71 3.418 1.604-3.44 3.649-1.36 3.419-5.982 2.359 2.334 0.801-1.252 2.563-1.709 1.457 0.537 1.407 2.582 2.562 3.418 0.352-1.457 1.103 0.18 2.565 0 1.366-5.521 2.063-12.197 0.854-16.238-1.54 0.739-2.679 1.878-3.419 3.419 0.861-4.268 1.015-9.243 1.71-13.674-1.74-0.254-2.275-1.712-3.418-2.564-1.52 2.469-1.538 6.439-3.418 8.546 0.084-3.023 1.641-3.745-0.855-5.127 1.058-2.361 2.496-4.342 2.564-7.692-5.553-0.359-8.75-0.874-10.256 5.983h-1.709c-0.359-4.062 1.243-6.164 1.709-9.401-3.038-1.329-0.517 2.902-2.563 2.563-0.189-0.666-0.716-0.994-1.709-0.854 0.897-5.791-3.239-2.484-0.855-7.692-1.68-0.255-1.695 1.154-2.563 1.709 1.237-2.594 0.725-4.942-2.549-5.137zm-4.273 5.127c2.43-0.419 3.023-2.675 3.419-5.128-3.584-1.847-4.38 6.423-5.128 10.256 3.089 0.81 1.192-3.366 1.709-5.128zm9.401 18.803c-0.002-1.527 2.302-4.972 0-5.983 0.709 2.232-2.584 4.689 0 5.983zm23.071 23.93c1.062 2.876 4.788-0.939 6.838-0.854 0.914 0.037 1.83 1.973 2.563 1.709 2.062-0.743 3.774-4.874 6.837-5.983 4.124-1.493 9.622-1.597 9.4 2.564-3.199-3.203-12.233-1.268-12.819 3.419 4.444 3.288 9.555 0.661 15.383 2.564-2.406 1.866-8.905-0.359-11.109 1.709 1.758 2.23 8.579-0.603 10.256 1.709-2.921 1.068-7.018 0.959-7.691 4.273 13.797 4.295 16.169-6.144 22.22-11.965 2.649 0.484 2.247 4.02 5.129 4.273 2.933-3.026-4.042-5.268-0.855-8.547-2.807-3.176-5.747-6.217-6.838-11.11-10.259-1.17-18.347-4.766-27.349-0.854-0.221 3.205-2.45 3.977-5.981 4.273-0.351 5.228-3.123 5.458-5.128 5.127 4.07 1.66 0 5.76-0.86 7.7zm47.86 28.2c2.206 0.436 7.059 3.127 7.691 0-0.666-0.188-0.993-0.716-0.854-1.709-2.58 0.27-6.64-0.95-6.84 1.71zm-32.47 17.1c-0.054 3.649-3.131 4.276-3.419 7.692 10.318-4.211 17.728-11.332 23.076-20.511-8.42 2.74-9.31 14.45-19.66 12.82z" fill="#fff"/>
	<path d="m154.91 29.558c-1.302-2.192 3.879 1.832 5.128 2.564-0.85 1.621-3.45-2.181-5.13-2.564z" fill="#fff"/>
	<path d="m177.99 53.488c-1.28-1.795 4.37 6.116 0 0z" fill="#fff"/>
	<path d="m162.6 64.599c1.501 2.279-3.866 2.905-5.981 1.709 0.12-2.449 5.87 0.738 5.98-1.709z" fill="#fff"/>
	<path d="m92.526 79.127c0.869-0.555 0.883-1.965 2.563-1.709-2.383 5.208 1.753 1.901 0.855 7.692 0.993-0.14 1.52 0.188 1.709 0.854 2.047 0.339-0.475-3.893 2.563-2.563-0.467 3.237-2.068 5.339-1.709 9.401h1.709c1.506-6.856 4.703-6.342 10.256-5.983-0.068 3.351-1.507 5.331-2.564 7.692 2.496 1.382 0.939 2.104 0.855 5.127 1.88-2.106 1.898-6.077 3.418-8.546 1.143 0.852 1.678 2.31 3.418 2.564-0.695 4.432-0.849 9.406-1.71 13.674 0.74-1.541 1.879-2.68 3.419-3.419 1.21 4.042 0.513 10.718-0.854 16.238-1.463 0.18-2.214-1.457-2.565 0-1.155-0.837-1.105-2.881-2.562-3.418-1.763 0.458-0.204 4.043-2.563 1.709 0.23 4.623-1.814 2.542-3.419 5.982-1.581-0.129-0.524-2.895-1.71-3.418-1.268 0.727-1.838 2.151-1.709 4.273-5.784-5.103-1.193-13.039-1.709-18.802-1.715 1.988-2.091 5.316-5.128 5.982 2-6.638 4.235-20.984 1.709-22.221-0.58-4.238-2.996-6.304-4.273-7.692-1.581 0.128-0.524 2.894-1.709 3.418-2.397-1.366 1.199-3.847 0-6.837-1.775 0.219-0.234 3.754-1.709 4.273-1.2-1.257 0.431-6.934 0.854-9.401 3.241 0.205 3.753 2.553 2.532 5.137zm12.824 12.82c1.03 0.087 0.52-1.242 0 0zm1.71 2.564c2.46-4.953-2.12-2.249 0 0zm4.27 1.709c-2.79 5.56 2.44 3.467 0 0zm-6.84 7.69c0.232-1.163-0.528-3.336-0.854-1.709-0.24 1.17 0.53 3.34 0.85 1.71zm-5.982 0.86c0.911-5.907-1.841 8.87 0 0zm17.092 1.71c-2.79 5.56 2.44 3.46 0 0zm-5.98 10.25c0.113-1.124 0.13-6.184-0.854-3.419-0.12 1.13-0.14 6.19 0.85 3.42zm-1.71 3.42v-5.128h-2.563c-0.51 3.08 0.3 4.82 2.56 5.13z"/>
	<path d="m105.35 91.947c0.52-1.242 1.03 0.087 0 0z" fill="#fff"/>
	<path d="m107.06 94.511c-2.12-2.249 2.46-4.953 0 0z" fill="#fff"/>
	<path d="m119.02 114.17c2.005 0.33 4.777 0.101 5.128-5.127 3.531-0.296 5.761-1.069 5.981-4.273 9.002-3.912 17.09-0.315 27.349 0.854 1.091 4.893 4.031 7.934 6.838 11.11-3.187 3.279 3.788 5.521 0.855 8.547-2.882-0.254-2.479-3.79-5.129-4.273-6.051 5.821-8.423 16.26-22.22 11.965 0.674-3.314 4.771-3.206 7.691-4.273-1.677-2.312-8.498 0.521-10.256-1.709 2.204-2.068 8.703 0.157 11.109-1.709-5.828-1.903-10.938 0.724-15.383-2.564 0.586-4.687 9.62-6.622 12.819-3.419 0.222-4.161-5.276-4.057-9.4-2.564-3.062 1.109-4.774 5.24-6.837 5.983-0.733 0.263-1.649-1.672-2.563-1.709-2.05-0.085-5.776 3.73-6.838 0.854 0.85-1.95 4.92-6.05 0.85-7.7zm32.48 11.96c1.47 0.046 2.191-0.658 2.564-1.709-1.34 0.08-2.96-0.11-2.56 1.71z"/>
	<path d="m98.508 104.77c-1.841 8.87 0.911-5.907 0 0z" fill="#fff"/>
	<path d="m260.04 0.501c0.296 49.244 2.563 103.72 2.563 157.25 0 6.842 1.912 14.895-2.563 20.512 4.165 3.763 2.536 10.228 2.563 15.383 0.205 38.057 1.336 70.751 0.855 111.96-2.198 3.271-3.622-2.885-4.274-0.855-34.849 3.479-73.138 0.896-110.25 1.71-18.094 0.396-36.428 0.873-53.843 0.854-7.598-0.009-15.228 0.219-22.22 0.854-1.615 0.147-2.56-1.075-3.419-0.854-0.929 0.238-0.579 1.66-1.709 1.71-0.548 0.023-1.528-0.852-1.709-0.855-3.301-0.076-6.144 0.937-8.545 0.855-1.926-0.065-1.155-1.533-2.565-1.71-15.575-1.956-35.134 4.844-50.423 0-2.158-73.99-1.554-162.04-3.428-233.31-0.307-11.676 0.538-23.287 0-35.04-0.553-12.105-2.876-25.102 1.71-37.605 85.576 1.181 169.73-2.686 257.25-0.854zm-58.98 5.127c-33.191 0.784-66.807 0.651-99.138 0.854-23.923 0.15-48.046 1.691-72.645 1.709-7.465 0.007-15.288-2.634-22.213 0.856 82.378 0.403 171.09-0.449 246.14-1.71-16.86-2.26-35.5-2.101-52.14-1.709zm-104.26 135.03c0.118 3.55 0.562 0.173 1.709 0 0.146 1.279-0.305 3.155 0.855 3.418 0.096-1.042 0.255-2.023 1.708-1.709-1.052 2.184 2.511 3.836 4.274 1.709-0.596 2.875 1.757 2.801 2.563 4.273 5.341-0.826 7.68 2.025 11.11 6.837-0.128-2.122 0.441-3.546 1.709-4.272 0.06 6.395 0.414 2.755 1.709 0-1.065 3.629 2.844 2.285 3.419 4.272 0.14 1.58-2.02 7.002 0 5.128 0.782-1.498 0.295-4.264 1.71-5.128-0.677 3.947 0.949 2.444 1.709 3.419 0.319 2.381-3.255 5.201-0.855 6.837 0.916-5.273 7.744-11.221 10.256-5.128-13.063 5.011-10.713 15.413-12.819 30.768 2.746-0.752 1.171 2.816 3.419 2.563 1.173-1.948-2.203-3.213 0-3.418 1.226 1.054 1.618 2.939 1.709 5.127 5.4-1.001 5.309 2.496 11.11 3.419-0.75 5.594 4.502 5.186 5.128 9.401 0.632-2.501 2.067-4.201 3.419-5.982 1.496 2.527 4.553-0.494 6.836 0-0.179 3.811 3.024 0.842 3.419 5.128 2.219 0.006 8.456-1.909 9.402 1.709 1.158-0.697 3.352-3.333 5.127-2.563 1.63 0.705-1.028 2.141 0.854 0 0.35-0.399 2.088 0.276 2.563 0 0.839-0.49 0.536-3.085 2.565-0.855 0.692-4.681-2.855-5.122-2.565-9.4-0.443-3.518 4.302-4.673 1.71-7.692-3.537 0.167-2.37 5.037-4.273 6.837-7.629-2.015-13.501-0.642-23.075-0.854-1.859-5.549-10.695-4.119-11.964-10.257 8.21 1.254 21.721 4.441 35.039 3.419 1.307-1.472-1.203-4.015 1.71-5.128-13.403-0.589-22.665-1.083-37.604-0.854-3.073 0.223-5.6 4.031-7.691 2.563 1.933-1.594 4.627-6.208 8.547-6.836 0.236-0.038 3.526 1.723 3.417 1.709 7.616 0.959 19.477-2.475 27.349 0 0.562-1.147 1.827-1.591 3.419-1.709 0.331-5.175-4.271-5.415-8.546-5.983-0.768-1.797-1.328-3.799-2.564-5.127-6.771 0.646-12.938-12.172-5.128-15.383 0.022 3.61-1.653 5.52 0 8.546 11.605 0.491 19.173-1.541 28.203-1.709 0.646-15.461-7.812-28.443-14.528-39.313 2.013-4.507 5.024-8.001 10.255-9.401 2.74-0.733 6.118 0.74 9.401 0 3.592-0.81 6.054-6.462 9.401-2.564-1.807 5.316-5.972 8.272-10.256 11.11 0.854 4.559-1.459 5.949-2.563 8.546 4.771 4.78 2.229 16.084-0.855 20.512 1.131 3.996 1.595 8.661 1.709 13.674-2.969 0.449-3.972 2.865-5.981 4.273-0.108 7.97-1.219 16.85 0 27.349 2.647 1.056 5.002 2.404 4.272 6.837 11.389 5.421 1.765 14.701 3.419 23.075-2.622 2.117-4.176-0.012-6.838 1.71 2.093 0.095 0.183 2.824-0.854 2.563-8.85 0.713-10.287 4.099-17.093 5.982 10.674 14.628 29.38 25.755 47.004 35.04 2.586 1.361 4.907 0.395 7.693 0.854 11.192 1.849 23.383 6.136 36.749 5.982 1.092-8.591-3.932-11.426-0.855-16.237-1.241-0.468-4.417 0.999-4.272-0.855-0.148-2.428 5.59 1.033 4.272-2.563-2.365-0.769-8.022 1.756-7.691-1.71 3.508 0.09 6.977 0.141 8.547-1.709-3.256-0.915-12.236 1.547-14.529-2.563h13.674c-3.667-4.322-17.866 0.081-21.365-4.273 7.592-1.292 17.295 2.366 21.365-0.854-8.676-2.435-23.898 1.679-29.912-3.419 10.623-1.53 22.306 3.134 29.912-0.854-11.231-2.728-27.759-0.16-38.459-3.418 11.49-2.029 23.556 1.096 38.459 0-2.422-4.653-9.351-2.518-13.674-2.564-13.414-0.146-24.53-0.007-34.186-1.709 5.155-1.807 14.333-0.854 23.075-0.854 8.891 0 18.049 0.687 24.784-0.855-14.294-2.322-35.382 0.275-44.44-2.563 14.059-2.848 34.783 1.346 44.44-1.71-1.005-0.133-2.426 0.147-2.563-0.854-6.025 0.924-16.978-0.384-22.221-0.854-4.523-0.406-11.062 1.739-13.675-1.71 6.606 0.256 14.277-0.335 21.367 0 5.936 0.281 13.956 3.623 17.092-1.709-12.01-0.24-25.376 0.876-35.04-1.709 10.126-3.427 27.201 2.228 35.04-1.71-11.896-1.046-20.787 0.19-31.621-1.709 8.551-1.99 20.794-0.288 30.767-0.854-1.979-3.096-8.632-1.71-13.675-1.71-5.041 0-11.695 1.387-13.673-1.709 4.604-1.21 11.929 0.128 17.947 0 3.332-0.07 8.478 1.439 9.4-1.709-8.103-0.444-18.332 1.24-23.93-1.709 6.979-3.001 18.988 1.688 23.93-1.71-1.792 0.643-3.9-0.673-5.981-0.854-5.397-0.473-12.224 1.762-14.529-1.709h20.511c0.238-3.018-4.329-1.575-5.981-1.71-4.952-0.403-9.227 0.552-11.966-0.854 3.937-2.9 15.351 1.676 17.947-2.563-5.076-0.621-12.922 1.527-15.384-1.709 1.896-2.29 15.549 1.453 14.529-2.564-2.045 1.151-9.935 0.849-11.11-1.709 5.022-0.106 7.867 1.165 11.965-0.854-2.111-2.447-10.302 1.185-11.109-2.564h11.109c0.808-5.08-7.826-0.719-9.4-3.418 1.427-2.561 9.16 1.184 9.4-2.564-2.366-0.768-8.023 1.756-7.691-1.709h7.691c0.577-3.996-7.215 0.379-6.837-3.418 2.966-0.169 6.569 0.302 6.837-2.564-1.771-0.509-5.613 1.056-5.981-0.855 1.525-1.037 4.972-0.156 5.981-1.709-2.266-0.013-5.031 0.475-5.128-1.709 1.61-2.154 4.441 1.794 5.128-1.709-1.515-0.194-4.28 0.862-3.418-1.709 1.515-0.195 4.279 0.861 3.418-1.709-1.342-0.082-2.962 0.114-2.562-1.709 1.343-0.082 2.963 0.114 2.562-1.709-1.006-0.134-2.426 0.147-2.562-0.854 4.694-1.523-1.953-2.46 2.562-5.983-1.278-0.145-3.154 0.306-3.418-0.854-0.272-2.267 4.787 0.799 3.418-2.564-1.241-0.468-4.417 0.999-4.273-0.854-0.148-2.428 5.592 1.032 4.273-2.564-1.503-0.492-5.021 1.033-5.128-0.854-0.141-2.419 5.269 0.71 5.128-1.709-0.713-2.135-6.678 0.981-5.981-2.564 1.42-0.102 7.74 0.467 5.127-0.854-2.776-0.072-5.257-0.44-6.837-1.709 2.776-0.072 5.257-0.44 6.837-1.709-2.6-0.819-8.667 1.831-8.546-1.709 2.599-0.819 8.666 1.83 8.546-1.709-3.393-0.595-9.467 1.49-10.255-1.709 2.877-0.542 7.938 1.101 9.4-0.854-2.578-1.126-7.32-0.085-9.4-1.709 1.756-2.231 8.578 0.603 10.255-1.709-2.406-0.533-8.979 0.538-7.691-1.709 1.206-2.102 6.266 0.503 6.837-1.709-1.762-0.517-5.938 1.379-5.128-1.709 2.907 0.059 5.964 0.266 6.837-1.709-1.771-0.509-5.613 1.056-5.981-0.855 0.106-1.888 3.625-0.363 5.127-0.854 1.317-3.597-4.423-0.136-4.273-2.564 2.122 0.128 3.548-0.442 4.273-1.709-1.615-0.379-5.15 1.163-4.273-1.709 8.681 0.205-3.077-1.305 3.419-4.273-1.343-0.081-2.963 0.115-2.564-1.709 1.948 0.238 3.214-0.207 3.419-1.709-1.278-0.146-3.153 0.306-3.419-0.854 0.525-1.185 3.291-0.129 3.419-1.709-2.12 0.125-4.147 0.159-4.273-1.709 1.521-0.472 3.549-0.439 4.273-1.709-2.266-0.012-5.032 0.475-5.127-1.709 1.502-0.491 5.021 1.034 5.127-0.854-0.584-1.694-5.092 0.533-4.273-2.563 1.242-0.468 4.418 0.999 4.273-0.854-2.266-0.013-5.032 0.474-5.127-1.709 2.265-0.013 5.032 0.474 5.127-1.709-1.502-0.492-5.021 1.033-5.127-0.854-0.387-2.379 4.657 0.67 4.272-1.709-1.117-1.661-4.523 1.712-5.128-1.709 2.456 0.178 4.341-0.216 5.128-1.709-1.762-0.517-5.938 1.379-5.128-1.709 1.422-0.103 7.74 0.467 5.128-0.854-3.356-1.025-4.717 0.908-6.837-1.709 2.044-0.52 6.201 1.073 6.837-0.854-0.849-2.284-7.401 1.133-6.837-2.564 2.044-0.521 6.201 1.073 6.837-0.855-2.16-1.829-8.658 0.682-9.4-2.564 2.598-0.536 7.361 1.094 8.547-0.854-2.654-1.734-6.263 0.652-9.402-1.709 2.82-1.578 6.984 0.712 10.256-1.709-3.748-1.095-9.817 0.131-11.966-2.564 3.723-0.551 9.661 1.115 11.966-0.854-3.977-1.436-10.051-0.775-13.675-2.564 5.015-1.215 12.218 2.224 13.675-0.855-4.453-1.815-13.271 0.736-15.383-3.418 4.058 1.64 11.217 0.178 15.383 1.709-2.516-5.111-12.751 0.242-17.092-4.273 7.564 0.167 9.357 0.857 17.092 0.854-3.207-4.77-15.39-0.563-19.657-4.272 6.039-1.403 13.195 2.451 19.657 0-5.946-2.315-16.059-0.465-21.366-3.419 8.063-0.656 13.709 1.105 21.366 0.854-4.676-5.01-18.435-0.937-23.93-5.128 8.831-0.285 15.919 1.174 23.93 1.709-2.868-5.817-22.58-1.087-26.494-5.127 9.217-1.571 20.749 2.853 26.494-0.855-8.992-1.341-24.059-0.72-31.621-1.709 5.851-2.865 22.367 1.054 30.768-1.709-9.707-2.259-23.203-0.728-33.332-2.564 9.845-3.299 26.657 2.02 34.186-1.709-4.88-0.759-13.604-1.396-17.092-1.709-8.193-0.734-17.949 1.947-23.932-1.709 14.298-0.971 37.158 1.806 40.17-0.854-13.94-1.682-29.307-0.68-45.297-2.563 14.416-3.155 35.314 1.867 45.297-1.709-12.103-1.098-27.089-1.709-40.17-1.709-5.056 0-11.747 1.408-13.674-1.709 16.335 0.478 39.722 0.072 53.844 0-22.479-3.505-41.113-0.932-62.39-2.564 21.76-2.145 41.588-0.632 62.39-1.709-18.983-2.174-46.526-1.826-66.663-1.709-2.317 0.014-4.481 2.664-5.981-0.854 22.691-0.44 52.205-2.017 71.789 0-0.984-2.653-3.344-2.301-5.128-2.563-23.494-3.459-55.348 3.358-76.918-0.854 26.006-1.125 55.439-0.963 82.901-0.855-2.505-3.279-7.446-1.651-10.257-1.709-4.224-0.088-8.088 0-11.965 0-66.519 0-126.01 0.187-197.42 1.709-5.133 0.356-4.68-0.564-10.256 0-6.493 0.657 0.934 0.762 2.564 0.855 21.628 1.229 51.72-1.877 65.808 0.854-24.316 2.05-60.368-0.951-83.754 2.563 12.646 0.494 31.219-0.251 47.005 0 3.977 0.063 9.548-1.498 11.964 1.709-13.339 0.326-27.177-0.435-40.168 0-6.701 0.224-14.035-0.084-18.802 2.564 12.106 0.755 22.967-1.141 33.331-0.855 2.785 0.077 7.348-1.494 8.546 1.709-12.878 1.771-30.059-1.225-42.821 2.441 10.291 0.722 24.211-3.476 32.476 0.855-5.357 0.006-11.105 0.708-15.384 0.854-6.393 0.219-13.367-1.287-17.947 1.709 7.981 0.565 18.226-1.133 24.785 0.854-6.152 2.679-19.058-1.396-23.93 2.563 5.512 1.041 15.248-2.143 17.947 1.709-5.829 0.723-14.787-1.683-17.947 1.709 4.415 0.999 12.91-2.085 14.529 1.709-5.264 0.149-11.534-0.708-14.529 1.709 3.722 0.551 9.661-1.115 11.965 0.855-2.376 2.751-11.72-1.465-12.819 2.564 3.094 0.894 9.915-1.939 10.255 1.709-3.393 0.595-9.466-1.49-10.255 1.709 2.598 0.536 7.361-1.094 8.546 0.854-2.02 1.97-8.444-0.467-9.401 2.564 1.526 1.038 4.972 0.157 5.982 1.709-1.096 1.468-5.11 0.017-5.127 2.564 2.189 0.09 4.074 0.483 5.127 1.709-1.01 0.984-3.021 0.967-5.127 0.855-0.548 3.112 4.071 1.056 4.273 3.418-1.096 1.468-5.11 0.018-5.127 2.564 1.521 0.473 3.549 0.439 4.272 1.709-0.63 1.363-4.183-0.195-3.418 2.564 1.278 0.146 3.154-0.306 3.418 0.854-0.234 1.759-3.184 0.805-3.418 2.564 0.631 1.363 4.184-0.195 3.418 2.564-1.343 0.082-2.963-0.115-2.563 1.709 1.279 0.146 3.154-0.305 3.418 0.854-0.631 1.363-4.184-0.194-3.418 2.564 2.266 0.013 5.032-0.474 5.127 1.709-2.266 0.013-5.032-0.474-5.127 1.709 2.189 0.09 4.075 0.483 5.127 1.709-1.01 0.984-3.021 0.967-5.127 0.854-1.327 3.605 4.745-0.187 3.418 3.419-2.12-0.126-4.147-0.16-4.273 1.708 1.242 0.468 4.417-0.999 4.273 0.854-0.232 1.762-3.784 0.204-3.418 2.564 5.188 0.338-0.044 2.631 0 3.418 0.011 0.21 2.08 0.937 1.709 1.709-0.256 0.535-3.109 0.218-2.563 1.709 0.797 0.912 3.153 0.265 2.563 2.563-1.47-0.045-2.19 0.658-2.563 1.709 1.592 0.118 2.856 0.562 3.418 1.709-1.136 0.858-3.18 0.809-3.418 2.564 0.929 0.927 3.629 4.699 0.854 5.128-0.752 2.746 2.817 1.171 2.563 3.418-1.864-0.155-2.718 0.699-2.563 2.564 2.375-1.057 2.375 2.766 0 1.709 2.674 4.968-1.01 9.864 1.709 13.674-0.095 1.615-2.825 0.593-2.563 2.564 4.951 1.338-1.202 3.458 3.418 5.128-1.47-0.046-2.191 0.658-2.563 1.708 4.491 0.527 0.894 1.696 0 3.419 4.917-0.148-1.17 2.818 2.563 5.128h-2.563c-0.822 3.102 3.84 0.718 3.418 3.419-1.634 0.359-3.678 0.309-3.418 2.563 1.279 0.146 3.154-0.305 3.418 0.855-0.232 1.762-3.784 0.204-3.418 2.564 0.524 1.185 3.29 0.129 3.418 1.709-1.865-0.155-2.719 0.7-2.563 2.564 1.006 0.134 2.425-0.147 2.563 0.854-2.235-0.241-3.676 0.312-3.418 2.564 2.888 0.99 3.646-0.604 5.127 0.854-0.106 1.888-3.625 0.363-5.127 0.855-1.084 4.502 5.774 1.063 6.837 3.418-0.722 1.842-5.448-0.32-5.982 1.709 3.587 2.634 6.644-2.11 8.546 1.709-0.66 1.953-9.864-0.244-7.692 1.709 2.877 0.541 7.938-1.101 9.401 0.854-2.056 3.297-8.764-1.297-10.255 2.564 2.512 2.33 10.362-0.677 12.819 1.709-4.408 1.809-9.618 0.454-12.819 0 3.141 6.608 14.352-2.454 16.237 4.273-4.96 1.022-14.083-2.118-16.237 1.709 6.067 1.055 16.407-2.163 19.656 1.709-6.274 0.562-14.804-1.13-19.656 0.855 5.493 2.471 18.232-1.413 23.075 1.709-6.732 3.47-15.207 1.058-23.075 0.854 3.645 5.196 14.365-1.441 18.802 3.418-4.396 2.442-14.435-0.76-18.802 1.71 3.114 2.868 13.69-1.726 15.383 2.563-3.158 0.546-8.513-1.106-10.255 0.855 1.081 2.052 6.739-0.472 7.692 1.709-1.898 3.276-8.507-1.166-11.965 1.709 2.428 1.116 6.083-0.136 9.401 1.71-1.463 1.955-6.524 0.313-9.401 0.854-0.756 4.459 8.448-1.041 7.692 3.418h-8.546c-1.008 4.739 6.754 1.218 6.837 2.564-0.12 2.444-3.565 1.562-5.983 1.709-0.146 3.848 4.42-1.199 4.273 3.419-1.502 0.491-5.021-1.033-5.127 0.854 0.524 1.185 3.29 0.129 3.418 1.709-4.238-0.36-0.483 2.56-2.564 3.418 0.863 5.092-1.219 16.028 0.854 22.222 14.667-9.265 30.813-17.047 47.006-24.785 2.791-10.028 9.046-16.592 8.545-29.912 0.807-2.612 4.158-2.679 4.274-5.982-1.596-2.962-2.281-6.835-4.274-9.401-4.777 1.043-8.511-3.207-9.401-8.547-0.106 1.888-3.625 0.363-5.128 0.854-2.495-2.631-6.428-3.827-6.837-8.546-3.19 0.341-5.015-0.683-5.128-3.419 5.928-0.533-1.533-5.695 1.709-9.401-5.353-2.908-7.017-9.506-9.4-15.383 0.496-2.353 2.127-3.57 2.564-5.982v-7.692c8.953-19.536-4.896-41.493 2.564-59.825 3.534-8.686 22.246-25.622 27.348-29.058 7.631-5.139 21.442-7.578 31.623-5.127 4.875-2.469 7.826-6.082 12.82-7.692 3.154-1.018 6.12-0.18 9.4-0.855 5.447-1.12 10.144-4.048 15.383-4.272 7.18-0.309 19.179 5.5 23.93 9.401 6.044 4.962 7.907 14.521 12.821 21.366 7.506 7.554 20.203 9.773 23.074 21.366 0.796 3.214-0.461 6.802 0 10.255 0.391 2.914 2.203 4.868 2.564 7.692 0.518 4.054-0.955 8.102-0.855 12.82 0.067 3.167 3.996 7.516 0 10.255-7.829-18.095-9.078-42.769-24.783-52.987-0.962 9.925-3.432 19.163-11.111 17.947-4.222-0.668-3.688-3.777-6.837-5.982-4.364-3.056-10.307-1.765-8.547-8.546-2.649 0.085-4.083-1.045-5.981-1.709-0.706-2.999-2.574-4.833-3.419-7.692-9.942-0.884-17.97-3.682-25.639-6.837-8.288 3.962-14.985 9.515-22.221 14.529 0.141 1.597-3.085 7.148-4.274 10.255-1.591 0.118-2.856 0.562-3.419 1.709 1.177 0.037 1.877-0.403 2.565-0.855 2.642 10.064-8.337 17.005-9.401 23.075 3.783-3.623 6.13-8.682 9.401-12.82 0.209 3.628-2.236 4.602-1.709 8.547 0.009 1.129 1.498 0.781 1.709 1.709-2.805 3.917-0.753 10.289 1.709 13.674-0.347 7.97 4.846 13.513 5.127 20.512 0.198 4.918-3.005 9.079-0.854 13.674 1.038-4.972 0.156 2.799 1.709 2.564 0.2-3.666 5.305 0.97 2.563 3.419 1.68 0.255 1.695-1.154 2.564-1.709-1.042 9.21-0.146 2.71 2.57 2.63zm-79.482-128.19c4.689-0.72-9.93-2.399-9.401 0.854 3.526 0.107 5.352-1.486 9.401-0.854zm117.94 3.418c-0.726-0.725-2.438 0.621-2.563 0.854-0.81 1.501 3.15-0.264 2.56-0.854zm24.78 16.238c-1.249-0.732-6.43-4.756-5.128-2.564 1.68 0.383 4.28 4.185 5.13 2.564zm0 6.837c-3.45-3.006-2.01 2.749 0 0zm17.95 14.529c4.37 6.116-1.28-1.795 0 0zm-138.45 11.111c-0.128-1.139 3.475-2.579 0.854-3.419 0.128 1.138-3.474 2.58-0.854 3.419zm122.21-1.71c-5.47-0.987-1.88 2.611 0 0zm-5.13 3.419c2.115 1.195 7.482 0.569 5.981-1.709-0.11 2.447-5.86-0.74-5.98 1.709zm-117.94 13.674c-1.223-4.394 3.496-7.28 0.855-10.255-1.11 2.06-3.067 7.708-0.855 10.255zm12.82 43.588c0.162-3.639 5.124-9.319 0.855-11.965-1.408 1.44-1.856 3.84-3.418 5.127 0.575 2.789-0.717 6.643 0 11.11 1.058 6.591 11.525 23.101 15.383 26.495 1.793 1.577 7.109 3.728 8.547 3.418 2.017-0.435 3.154-4.253 5.128-4.272 0.742-7.428-4.792-14.541-4.274-21.367-1.85 1.25-1.69 7.849-4.273 3.419-0.721 3.57 1.662 4.036 1.709 6.837-8.172-2.938-7.083-15.138-13.673-19.656-2.388 3.412 1.739 9.487 0 11.965-2.45-3.25-1.486-9.91-5.984-11.11zm128.2 0c-0.765 2.758 2.787 1.201 3.418 2.563-0.126-1.138 3.475-2.579 0.855-3.418 0.14 1.86-3.04 0.39-4.28 0.86zm-115.38 9.4c2.17 0.38 3.403-4.465 1.709-5.128-0.491 1.79-2.117 2.44-1.709 5.13zm38.458 41.02c2.007-7.548-1.406-23.207-0.854-25.639-0.87 6.91-0.29 18.08 0.85 25.64zm2.57-22.22c0.137-0.596-0.298-4.974-0.855-2.564-0.76 3.25 0.45 4.28 0.85 2.56zm-10.261 1.71c0.138-0.596-0.298-4.975-0.854-2.564-0.751 3.25 0.459 4.28 0.854 2.56zm3.419 7.69c-1.015-4.566 1.288-7.404-1.709-10.255 0.286 3.7-0.976 8.95 1.709 10.25zm1.712-0.85c-0.175-1.615 0.577-8.443-0.854-5.982 0.171 1.61-0.579 8.44 0.854 5.98zm20.51-1.71c0.232-1.164-0.529-3.336-0.854-1.709-0.24 1.16 0.52 3.34 0.85 1.71zm2.56 5.13c-0.517-2.113 2.186-7.594 0-5.983 0.71 2.23-2.58 4.68 0 5.98zm-5.13-0.86c-0.009-1.254 0.323-6.994-0.855-4.273 0.02 1.25-0.31 6.99 0.86 4.27zm-6.83-1.71c0.232-1.164-0.53-3.336-0.854-1.709-0.24 1.17 0.52 3.34 0.85 1.71zm-5.98 15.39c1.359-4.574 1.016-13.086-1.71-16.238 1.87 4.11-0.37 12.33 1.71 16.24zm3.41 4.27c-0.103-7.02-0.307-13.938-2.565-18.802 1.83 5.99-0.54 16.32 2.56 18.8zm16.24-15.38c0.232-1.164-0.53-3.337-0.855-1.709-0.22 1.16 0.54 3.33 0.86 1.71zm56.41 3.41c-0.518-1.761 1.378-5.937-1.71-5.127-0.18 2.46 0.22 4.35 1.71 5.13zm-64.95 0c0.137-0.595-0.299-4.974-0.855-2.563-0.75 3.25 0.46 4.28 0.86 2.56zm1.7-1.7c-1.8 5.578 1.988 12.349 0.854 18.802 1.194-6.78 1.696 3.015 2.564 0.855 1.19-6.211 1.626-19.328-1.71-20.511 1.03 5.34-2 1.77-1.7 0.85zm6.84 3.41c0.232-1.164-0.53-3.336-0.855-1.709-0.22 1.17 0.54 3.34 0.86 1.71zm-15.38 0c0.353 5.062-1.084 11.91 1.71 14.529 0.146-1.278-0.306-3.154 0.854-3.418v5.127c2.121-0.533 1.649-1.898 2.563-5.127-1.043-0.097-2.023-0.256-1.709-1.709 4.268 1.347 0.632-13.621-2.563-10.256 0.9 0.06 0.68 1.1-0.85 0.86zm-29.059 12.82c-1.181-4.231-0.816-10.008-3.419-12.819-1.768 4.34 3.848 13.1 3.419 12.82zm41.879 5.99c0.17 2.83-0.69-11.46 0 0zm2.56 2.56c-0.175-1.615 0.575-8.444-0.855-5.983 0.18 1.61-0.57 8.44 0.86 5.98zm-5.98 4.27c-1.108-2.597-0.554-6.854-2.563-8.547 1.44 2.27-0.7 8.11 2.56 8.55zm-23.075 38.46c7.964 14.774 15.803 32.177 25.639 43.586 1.419-1.605-6.351-8.327-6.838-13.675 3.895 1.52 6.215 4.612 11.11 5.128 0.209-6.19-0.059-11.904-2.563-15.383-5.889 1.601-13.22-2.724-17.947-5.128 10.812-5.838 24.857-7.54 39.312-7.692-5.201-1.35-9.848-3.256-16.238-3.418-17.81-9.874-36.005-22.731-47.859-37.604-2.009-2.52-2.48-8.514-6.837-7.691 3.859 15.67 14.673 27.85 22.231 41.87zm29.055-35.89c0.232-1.164-0.53-3.336-0.855-1.71-0.22 1.16 0.54 3.33 0.86 1.71zm-2.56 0c-1.13-0.01-0.78-1.498-1.709-1.71-0.98 1.75 1.34 4.07 1.71 1.71zm40.16 32.47c-4.873 3.387-9.492 7.029-17.092 7.691 1.648 5.695 11.343 1.919 17.947 3.419 4.26 0.968 6.758 5.558 10.255 3.418-4.09-4.46-5.87-11.23-11.12-14.53zm-17.09 27.35c-0.103-1.421 0.466-7.74-0.855-5.129 0.1 1.42-0.47 7.74 0.85 5.13zm0 5.13c0.028 0.085 0.775-0.068 0.854 0 3.33 4.69-2.86-6.05-0.85 0zm8.55 8.55c-5.93-3.706-14.485-0.357-23.076 1.71 8.599 5.751 19.915 14.843 29.058 20.512 4.697 2.913 14.599-0.116 21.367 1.71-1.514-8.458-4.064-15.88-5.983-23.932-6.185 1.817-14.093 0.52-17.948-2.563 0.26 2.24-1.18 2.8-3.42 2.56z"/>
	<path d="m101.93 148.35c-0.552 2.433 2.861 18.091 0.854 25.639-1.14-7.56-1.72-18.73-0.85-25.64z" fill="#fff"/>
	<path d="m123.29 157.75c2.186-1.611-0.517 3.87 0 5.983-2.58-1.29 0.71-3.74 0-5.98z" fill="#fff"/>
	<path d="m106.2 162.03c2.259 4.864 2.463 11.783 2.565 18.802-3.1-2.48-0.73-12.81-2.56-18.8z" fill="#fff"/>
	<path d="m110.47 169.72c3.195-3.365 6.831 11.604 2.563 10.256-0.314 1.453 0.666 1.612 1.709 1.709-0.914 3.229-0.442 4.594-2.563 5.127v-5.127c-1.16 0.264-0.709 2.14-0.854 3.418-2.794-2.619-1.357-9.467-1.71-14.529 1.53 0.23 1.75-0.81 0.85-0.86zm2.57 5.98c0.815 6.532 2.313-0.392-0.854-2.564-0.32 1.21 0.75 1.83 0.85 2.56z" fill="#fff"/>
	<path d="m77.142 170.57c2.603 2.811 2.238 8.588 3.419 12.819 0.429 0.28-5.187-8.48-3.419-12.82z" fill="#fff"/>
	<path d="m122.44 189.38c-0.69-11.46 0.17 2.83 0 0z" fill="#fff"/>
	<path d="m116.46 187.67c2.01 1.693 1.455 5.95 2.563 8.547-3.26-0.45-1.12-6.29-2.56-8.55z" fill="#fff"/>
	<path d="m73.723 192.79c4.357-0.822 4.829 5.172 6.837 7.691 11.854 14.873 30.05 27.73 47.859 37.604 6.391 0.162 11.037 2.068 16.238 3.418-14.455 0.152-28.501 1.854-39.312 7.692 4.728 2.404 12.059 6.729 17.947 5.128 2.505 3.479 2.772 9.192 2.563 15.383-4.896-0.516-7.216-3.608-11.11-5.128 0.487 5.348 8.257 12.069 6.838 13.675-9.836-11.409-17.675-28.812-25.639-43.586-7.564-14-18.378-26.18-22.228-41.86z" fill="#fff"/>
	<path d="m146.37 263.73c-0.078-0.068-0.825 0.085-0.854 0-2.02-6.05 4.17 4.69 0.85 0z" fill="#fff"/>
</g>
<metadata><rdf:RDF><cc:Work><dc:format>image/svg+xml</dc:format><dc:type rdf:resource="http://purl.org/dc/dcmitype/StillImage"/><cc:license rdf:resource="http://creativecommons.org/licenses/publicdomain/"/><dc:publisher><cc:Agent rdf:about="http://openclipart.org/"><dc:title>Openclipart</dc:title></cc:Agent></dc:publisher><dc:title>Abraham Lincoln</dc:title><dc:date>2006-11-05T10:10:30</dc:date><dc:description>a woodcut style image of US president Abraham Lincoln from "Scan This Book"</dc:description><dc:source>http://openclipart.org/detail/1293/abraham-lincoln-by-johnny_automatic</dc:source><dc:creator><cc:Agent><dc:title>johnny_automatic</dc:title></cc:Agent></dc:creator><dc:subject><rdf:Bag><rdf:li>clip art</rdf:li><rdf:li>clipart</rdf:li><rdf:li>editorial pick</rdf:li><rdf:li>externalsource</rdf:li><rdf:li>famous-people</rdf:li><rdf:li>image</rdf:li><rdf:li>lincoln</rdf:li><rdf:li>man</rdf:li><rdf:li>media</rdf:li><rdf:li>png</rdf:li><rdf:li>politician</rdf:li><rdf:li>president</rdf:li><rdf:li>presidents</rdf:li><rdf:li>public domain</rdf:li><rdf:li>svg</rdf:li><rdf:li>usa</rdf:li></rdf:Bag></dc:subject></cc:Work><cc:License rdf:about="http://creativecommons.org/licenses/publicdomain/"><cc:permits rdf:resource="http://creativecommons.org/ns#Reproduction"/><cc:permits rdf:resource="http://creativecommons.org/ns#Distribution"/><cc:permits rdf:resource="http://creativecommons.org/ns#DerivativeWorks"/></cc:License></rdf:RDF></metadata></svg>
